<?xml version="1.0" encoding="UTF-8"?><svg id="Layer_1" xmlns="http://www.w3.org/2000/svg" viewBox="0 0 2000 704"><defs><style>.cls-1{fill:#000;stroke-width:0px;}</style></defs><path class="cls-1" d="M1182,596.16c-4.58,3.86-8.76,8.35-13.79,11.49-64.97,40.62-159.6,27.51-206.58-32.74-42.44-54.44-81.56-111.61-119.31-169.4-15.23-23.31-30.73-35.89-59.36-31.55-15.12,2.29-30.88.41-51.98.41,0,16.68,0,31.52,0,46.36,0,51.51-.03,103.02.03,154.52.02,21.38,2.18,41.66,27.69,50.8h-119.99c30.97-6.64,29.67-30.61,29.69-53.6.07-139.07.12-278.14-.04-417.21-.03-22.86,1.22-47.02-29.94-50.88,82.17,0,165.04-8.18,245.46,2.25,84.18,10.92,115.84,106.85,66.05,181.84-16.71,25.17-41.54,45.02-65.99,70.82,14.36,22.41,30.51,49.52,48.54,75.34,25.98,37.2,51.91,74.58,80.4,109.87,54.68,67.73,85.58,75.93,169.12,51.68ZM732.25,360.77c63.9-1.15,127.88,9.66,167.63-53.33,26.43-41.9,18.38-105.21-16.59-150.86-28.46-37.16-94.09-53.67-151.04-37.41v241.6Z"/><path class="cls-1" d="M1451.16,626.95h-53.46c12.36-19.47,29.54-39.41,38.95-62.49,59.86-146.89,117.98-294.48,176.78-441.79,4.36-10.94,9.52-21.56,17.37-39.2,7.57,15.78,12.28,24.38,15.95,33.4,60.14,147.89,120.06,295.87,180.26,443.74,10.47,25.72,19.41,53.1,50.62,64.97h-107c0-12.5,3.93-27.74-.66-39.76-23.14-60.6-49.05-120.15-72.71-180.57-6.39-16.32-15.61-21.45-32.53-20.84-42.39,1.52-94.56-13.32-124.5,6.18-29.46,19.19-36.71,72.42-53.09,110.98-12.49,29.38-25.04,58.82-35.41,88.97-3.56,10.34-.56,22.91-.56,36.43ZM1610.24,190.91c-24.89,63.2-46.71,118.61-68.96,175.12h138.98c-23.21-58.05-45.15-112.92-70.02-175.12Z"/><path class="cls-1" d="M344.64,83.7c7.39,15.29,12.09,23.79,15.73,32.73,60.5,148.83,120.31,297.94,181.83,446.34,9.64,23.26,26.93,43.38,39.24,62.68h-96.79c0-12.23,3.89-27.27-.65-39.13-23.19-60.57-49.09-120.1-72.8-180.48-6.26-15.95-14.69-22.06-31.98-21.5-37.27,1.21-74.67-.83-111.86,1.22-9.41.52-22.94,9.44-26.57,17.89-26.4,61.5-51.31,123.66-75.21,186.17-3.93,10.27-.55,23.3-.55,36.74h-52.26c11.69-18.55,27.52-37.13,36.24-58.56,60.5-148.82,119.5-298.25,179.09-447.44,4.02-10.06,8.9-19.79,16.55-36.67ZM394.25,367.14c-23.02-57.62-45.26-113.28-70.33-176.05-25.28,63.77-47.05,118.66-69.81,176.05h140.14Z"/><path class="cls-1" d="M1231.3,626.84c6.73-16.95,19.54-34.45,19.75-52.1,1.65-140.01,1.04-280.06.75-420.09-.05-21.8.11-44.72-28.12-54.42h119.48c-28.3,8.59-29.5,30.65-29.39,55.23.6,139,.48,278.01.31,417.01-.03,23.5,0,46.18,29.45,54.37h-112.23Z"/></svg>